<?xml version="1.0" encoding="utf-8"?>
<!-- Generator: Adobe Illustrator 21.0.0, SVG Export Plug-In . SVG Version: 6.00 Build 0)  -->
<svg version="1.1" id="Layer_1" xmlns="http://www.w3.org/2000/svg" xmlns:xlink="http://www.w3.org/1999/xlink" x="0px" y="0px"
	 viewBox="0 0 50 50" style="enable-background:new 0 0 50 50;" xml:space="preserve">
<style type="text/css">
	.st0{fill:none;}
	.st1{fill:#FFCE15;}
</style>
<g>
	<path class="st0" d="M24.5,9c-13.8,0-25,11.2-25,25c0,13.8,11.2,25,25,25s25-11.2,25-25C49.5,20.2,38.3,9,24.5,9z M18.1,52l4.6-15
		H12.5l19.4-21l-4.6,15h10.2L18.1,52z"/>
</g>
<g>
	<path class="st0" d="M24.5,8c-13.8,0-25,11.2-25,25c0,13.8,11.2,25,25,25s25-11.2,25-25C49.5,19.2,38.3,8,24.5,8z M18.1,51l4.6-15
		H12.5l19.4-21l-4.6,15h10.2L18.1,51z"/>
</g>
<g>
	<path class="st0" d="M24.5,7c-13.8,0-25,11.2-25,25c0,13.8,11.2,25,25,25s25-11.2,25-25C49.5,18.2,38.3,7,24.5,7z M18.1,50l4.6-15
		H12.5l19.4-21l-4.6,15h10.2L18.1,50z"/>
</g>
<g>
	<path class="st0" d="M24.5,6c-13.8,0-25,11.2-25,25c0,13.8,11.2,25,25,25s25-11.2,25-25C49.5,17.2,38.3,6,24.5,6z M18.1,49l4.6-15
		H12.5l19.4-21l-4.6,15h10.2L18.1,49z"/>
</g>
<g>
	<path class="st0" d="M24.5,5c-13.8,0-25,11.2-25,25c0,13.8,11.2,25,25,25s25-11.2,25-25C49.5,16.2,38.3,5,24.5,5z M18.1,48l4.6-15
		H12.5l19.4-21l-4.6,15h10.2L18.1,48z"/>
</g>
<g>
	<path class="st0" d="M24.5,4c-13.8,0-25,11.2-25,25c0,13.8,11.2,25,25,25s25-11.2,25-25C49.5,15.2,38.3,4,24.5,4z M18.1,47l4.6-15
		H12.5l19.4-21l-4.6,15h10.2L18.1,47z"/>
</g>
<g>
	<path class="st0" d="M24.5,3c-13.8,0-25,11.2-25,25c0,13.8,11.2,25,25,25s25-11.2,25-25C49.5,14.2,38.3,3,24.5,3z M18.1,46l4.6-15
		H12.5l19.4-21l-4.6,15h10.2L18.1,46z"/>
</g>
<g>
	<path class="st0" d="M24.5,2c-13.8,0-25,11.2-25,25c0,13.8,11.2,25,25,25s25-11.2,25-25C49.5,13.2,38.3,2,24.5,2z M18.1,45l4.6-15
		H12.5L31.9,9l-4.6,15h10.2L18.1,45z"/>
</g>
<g>
	<path class="st0" d="M24.5,1c-13.8,0-25,11.2-25,25c0,13.8,11.2,25,25,25s25-11.2,25-25C49.5,12.2,38.3,1,24.5,1z M18.1,44l4.6-15
		H12.5L31.9,8l-4.6,15h10.2L18.1,44z"/>
</g>
<g>
	<path class="st0" d="M24.5,0c-13.8,0-25,11.2-25,25c0,13.8,11.2,25,25,25s25-11.2,25-25C49.5,11.2,38.3,0,24.5,0z M18.1,43l4.6-15
		H12.5L31.9,7l-4.6,15h10.2L18.1,43z"/>
</g>
<g>
	<g>
		<path class="st1" d="M25,0C11.2,0,0,11.2,0,25c0,13.8,11.2,25,25,25s25-11.2,25-25C50,11.2,38.8,0,25,0z M18.6,43l4.6-15H13
			L32.4,7l-4.6,15H38L18.6,43z"/>
	</g>
</g>
</svg>
